<svg id="Слой_2" data-name="Слой 2" xmlns="http://www.w3.org/2000/svg" viewBox="0 0 115.93 102.56"><defs><style>.cls-1{fill:#272525;}.cls-2{fill:#00acec;}</style></defs><path class="cls-1" d="M619.74,588H608.11a1.9,1.9,0,0,0-1.9,1.9v7.25H521.14V573.88a1.9,1.9,0,0,0-1.9-1.9H507.61a1.9,1.9,0,0,0-1.9,1.9v66.47a1.9,1.9,0,0,0,1.9,1.9h11.63a1.9,1.9,0,0,0,1.9-1.9V619.61h85.07v20.74a1.9,1.9,0,0,0,1.9,1.9h11.63a1.9,1.9,0,0,0,1.9-1.9V589.9A1.9,1.9,0,0,0,619.74,588ZM610,638.45V591.8h7.84v46.65Zm-100.5,0V575.78h7.83v62.67ZM521.14,601h85.07v14.86H521.14Z" transform="translate(-505.71 -539.69)"/><path class="cls-1" d="M528.74,581.27A5.71,5.71,0,0,0,523,587v2.58a5.71,5.71,0,0,0,5.7,5.7h14a5.7,5.7,0,0,0,5.69-5.7V587a5.7,5.7,0,0,0-5.69-5.7Zm15.9,8.28a1.9,1.9,0,0,1-1.89,1.9h-14a1.9,1.9,0,0,1-1.9-1.9V587a1.9,1.9,0,0,1,1.9-1.9h14a1.9,1.9,0,0,1,1.89,1.9Z" transform="translate(-505.71 -539.69)"/><path class="cls-1" d="M576.36,575.64H587.5a1.42,1.42,0,0,0,1.42-1.42v-9.56h9.56a1.42,1.42,0,0,0,1.42-1.42V552.1a1.42,1.42,0,0,0-1.42-1.43h-9.56v-9.55a1.42,1.42,0,0,0-1.42-1.43H576.36a1.43,1.43,0,0,0-1.43,1.43v9.55h-9.55A1.43,1.43,0,0,0,564,552.1v11.14a1.43,1.43,0,0,0,1.43,1.42h9.55v9.56A1.43,1.43,0,0,0,576.36,575.64Zm-9.56-22.12h9.56a1.43,1.43,0,0,0,1.42-1.42v-9.56h8.3v9.56a1.42,1.42,0,0,0,1.42,1.42h9.55v8.29H587.5a1.42,1.42,0,0,0-1.42,1.43v9.55h-8.3v-9.55a1.43,1.43,0,0,0-1.42-1.43H566.8Z" transform="translate(-505.71 -539.69)"/><rect class="cls-2" x="15.43" y="61.25" width="85.07" height="14.86"/><rect class="cls-2" x="3.8" y="36.09" width="7.83" height="62.67"/><rect class="cls-2" x="104.3" y="52.1" width="7.84" height="46.66"/><rect class="cls-2" x="72.07" y="2.85" width="8.29" height="30.25"/><rect class="cls-2" x="61.09" y="13.83" width="30.25" height="8.29"/></svg>